<?xml version="1.0" ?><!DOCTYPE svg  PUBLIC '-//W3C//DTD SVG 1.1//EN'  'http://www.w3.org/Graphics/SVG/1.1/DTD/svg11.dtd'><svg enable-background="new 0 0 1024 1024" height="1024px" id="G_x2B__2_" version="1.1" viewBox="0 0 1024 1024" width="1024px" xml:space="preserve" xmlns="http://www.w3.org/2000/svg" xmlns:xlink="http://www.w3.org/1999/xlink"><g id="Background"><g id="bg"><path d="M75.094,306.009c0-27.5,19.413-61.375,43.14-75.277L468.861,25.286c23.727-13.902,62.553-13.902,86.28,0    l350.625,205.445c23.729,13.902,43.141,47.777,43.141,75.277v412c0,27.5-19.412,61.375-43.141,75.277L555.141,998.731    c-23.727,13.901-62.553,13.901-86.28,0L118.234,793.286c-23.727-13.902-43.14-47.777-43.14-75.277V306.009z" fill="#DB4437"/></g><path d="M938.092,262.262c0,0-1.043-2.021-3.287-5.308   c-1.818-2.663-3.744-5.561-6.111-8.186c-5-5.547-6.697-6.941-7.377-7.551c-2.637-2.355-5.848-4.802-8.945-6.617   c-2.26-1.324-362.889-212.631-362.889-212.631s-6.123-3.544-11.67-5.321s-9.457-2.56-13.51-3.129   c-4.053-0.568-9.672-0.854-13.297-0.854c-3.627,0-12.089,0.712-15.716,1.565s-6.276,1.511-7.236,1.83   c-0.96,0.32-3.173,1.094-4.08,1.387c-0.907,0.294-5.094,2.16-5.333,2.294c-0.239,0.133-1.643,0.776-2.431,1.238   S124.594,227.004,124.594,227.004s-14.797,8.097-20.628,13.074c-2.497,2.131-5.266,4.866-7.658,7.582   c-3.196,3.627-5.807,7.202-7.026,9.093c-0.923,1.431-2.28,3.533-3.494,5.707c-1.577,2.825-3.032,5.837-3.667,7.146   c-1.162,2.398-3.293,8.054-3.827,9.76c-0.533,1.707-1.547,5.534-1.707,6.436c-0.042,0.234-0.693,3.521-0.747,3.911   c-0.053,0.392-0.44,2.92-0.533,4.267c-0.033,0.48-0.211,2.897-0.212,2.969c-0.001,0.072-0.001,429.512-0.001,429.512   s0.349,5.078,0.427,5.635c0.028,0.203,0.453,3.433,0.782,4.837c0.213,0.91,0.64,2.986,0.924,3.981   c0.284,0.995,0.729,2.636,0.96,3.342c0.213,0.653,0.96,2.917,1.209,3.592s1.25,3.247,1.529,3.911   c0.286,0.682,1.813,4.019,1.92,4.23C82.951,756.203,938.092,262.262,938.092,262.262z" enable-background="new    " fill="#FFFFFF" id="bg-light" opacity="0.2"/></g><g id="G_x2B__3_"><polygon fill="#FFFFFF" points="769.141,471.602 716.614,471.602 716.614,419.074 683.172,419.074 683.172,471.602    630.643,471.602 630.643,505.043 683.172,505.043 683.172,557.571 716.614,557.571 716.614,505.043 769.141,505.043  "/><path d="M605.879,581.232c-17.668-19.876-44.799-40.697-58.049-52.37s-42.589-32.494,13.881-72.877   c56.471-40.382,48.584-93.066,37.229-124.933c-11.357-31.863-34.072-46.691-38.176-52.37c-4.1-5.679,0.947-4.101,0.947-4.101   s35.334,13.881,77.924-22.715H522.59c-29.603-1.31-59.892,1.049-88.75,7.753c-32.338,7.512-61.999,29.494-80.287,56.988   c-3.052,4.588-5.93,9.444-8.263,14.445c-13.64,29.229-14.364,62.516-2.751,92.59c3.291,8.522,8.021,17.332,13.792,24.454   c14.828,18.298,45.429,37.857,72.561,39.75c27.132,1.895,39.437,1.264,39.437,1.264s-20.507,36.91,13.408,69.091   c0,0-22.242,3.313-63.412,8.991c-41.17,5.678-102.374,28.865-114.994,87.229c-12.619,58.365,27.028,89.599,57.367,103.479   c37.419,17.122,80.755,19.244,121.02,14.324c21.526-2.63,43.415-7.28,63.274-16.218c25.238-11.356,47.008-28.709,61.52-47.638   c21.033-27.437,30.064-67.742,16.6-100.6C619.196,598.224,612.717,588.926,605.879,581.232z M470.279,467.816   c-21.867-3.313-39.179-19.876-49.115-33.126c-12.049-16.065-18.119-38.281-21.75-57.727c-1.977-10.58-2.33-22.228-1.955-32.959   c0.767-21.937,9.083-43.135,24.359-56.188c10.065-8.603,23.153-13.667,39.096-13.077c37.232,1.379,61.971,38.176,73.35,70.037   c4.732,13.251,8.99,35.966,9.465,47.796c0.473,11.831,0.945,38.805-15.143,54.421C512.496,462.61,492.146,471.129,470.279,467.816z    M580.639,681.556c-7.57,74.454-120.513,61.204-135.656,59.312c-15.144-1.894-94.015-22.083-83.288-90.229   c1.591-10.11,5.992-20.754,12.484-28.659c11.901-14.492,29.365-24.215,46.86-30.186c21.293-7.267,43.229-13.041,64.916-11.75   c11.262,0.671,22.456,3.247,33.457,8.51C552.426,604.348,584.545,643.152,580.639,681.556z" fill="#FFFFFF"/></g></svg>