<?xml version="1.0" ?><!DOCTYPE svg  PUBLIC '-//W3C//DTD SVG 1.1//EN'  'http://www.w3.org/Graphics/SVG/1.1/DTD/svg11.dtd'><svg enable-background="new 0 0 1024 1024" height="1024px" id="Wordpress_1_" version="1.1" viewBox="0 0 1024 1024" width="1024px" xml:space="preserve" xmlns="http://www.w3.org/2000/svg" xmlns:xlink="http://www.w3.org/1999/xlink"><g id="Background"><g id="bg_1_"><path d="M75.094,306.009c0-27.5,19.413-61.375,43.14-75.277L468.861,25.286c23.727-13.902,62.553-13.902,86.28,0    l350.625,205.445c23.729,13.902,43.141,47.777,43.141,75.277v412c0,27.5-19.412,61.375-43.141,75.277L555.141,998.731    c-23.727,13.901-62.553,13.901-86.28,0L118.234,793.286c-23.727-13.902-43.14-47.777-43.14-75.277V306.009z" fill="#21759A"/></g><path d="M938.092,262.262c0,0-1.043-2.021-3.287-5.308   c-1.818-2.664-3.744-5.561-6.111-8.186c-5-5.546-6.697-6.941-7.377-7.551c-2.637-2.355-5.848-4.801-8.945-6.617   c-2.26-1.325-362.889-212.631-362.889-212.631s-6.123-3.544-11.67-5.321c-5.547-1.778-9.457-2.56-13.51-3.129   s-9.672-0.854-13.298-0.854c-3.626,0-12.089,0.711-15.716,1.565c-3.626,0.853-6.275,1.511-7.235,1.831s-3.173,1.093-4.08,1.387   c-0.905,0.293-5.093,2.16-5.333,2.293c-0.239,0.133-1.643,0.776-2.431,1.238c-0.789,0.462-351.617,206.025-351.617,206.025   s-14.797,8.097-20.628,13.074c-2.497,2.131-5.266,4.867-7.658,7.582c-3.196,3.627-5.807,7.203-7.026,9.093   c-0.923,1.43-2.28,3.533-3.494,5.707c-1.577,2.825-3.032,5.837-3.667,7.147c-1.162,2.398-3.293,8.053-3.827,9.76   s-1.547,5.534-1.707,6.436c-0.042,0.234-0.693,3.521-0.747,3.911c-0.053,0.391-0.44,2.92-0.533,4.267   c-0.033,0.48-0.211,2.897-0.212,2.969c-0.001,0.072-0.001,429.511-0.001,429.511s0.349,5.079,0.427,5.635   c0.028,0.203,0.453,3.433,0.782,4.836c0.213,0.91,0.64,2.987,0.924,3.982c0.284,0.995,0.729,2.636,0.96,3.342   c0.213,0.653,0.96,2.917,1.209,3.591c0.249,0.675,1.25,3.248,1.529,3.912c0.286,0.68,1.813,4.018,1.92,4.23   C82.951,756.204,938.092,262.262,938.092,262.262z" enable-background="new    " fill="#FFFFFF" id="bg-light" opacity="0.2"/></g><path d="M241.923,359.646c0.002,0,18.771,0,18.771,0s4.283-0.69,7.172,4.787  c0.963,1.825,2.036,4.336,3.186,7.786c0.142,0.426,0.301,0.848,0.451,1.271c0.154,0.434,0.309,0.868,0.463,1.303  c0.162,0.456,0.324,0.912,0.486,1.367c0.173,0.488,0.347,0.975,0.521,1.463c0.188,0.528,0.377,1.057,0.566,1.585  c0.207,0.579,0.414,1.157,0.621,1.735c0.229,0.636,0.457,1.271,0.685,1.908c0.251,0.699,0.503,1.399,0.755,2.098  c0.277,0.769,0.554,1.538,0.832,2.307c0.304,0.842,0.608,1.685,0.913,2.527c0.332,0.918,0.664,1.838,0.997,2.756  c0.361,0.996,0.722,1.994,1.083,2.989c0.39,1.075,0.779,2.149,1.169,3.224c0.418,1.153,0.836,2.304,1.255,3.457  c0.446,1.228,0.892,2.456,1.338,3.684c0.473,1.302,0.947,2.603,1.419,3.904c0.499,1.372,0.998,2.742,1.497,4.113  c0.523,1.438,1.046,2.875,1.569,4.312c0.546,1.499,1.092,2.999,1.638,4.498c0.566,1.558,1.134,3.112,1.701,4.669  c0.586,1.609,1.173,3.219,1.759,4.828c0.604,1.658,1.208,3.314,1.813,4.973c0.62,1.701,1.241,3.401,1.861,5.104  c0.635,1.742,1.27,3.481,1.905,5.222c0.648,1.777,1.296,3.554,1.944,5.33c0.66,1.809,1.319,3.617,1.98,5.426  c0.67,1.838,1.341,3.676,2.011,5.513c0.68,1.864,1.36,3.728,2.042,5.592c0.688,1.887,1.378,3.775,2.066,5.663  c0.697,1.909,1.396,3.818,2.092,5.728c0.703,1.93,1.408,3.859,2.112,5.788c0.711,1.947,1.423,3.895,2.135,5.842  c0.718,1.965,1.435,3.929,2.152,5.894c0.724,1.979,1.446,3.96,2.169,5.94c0.729,1.993,1.457,3.987,2.187,5.981  c0.732,2.007,1.466,4.015,2.2,6.022c0.737,2.019,1.476,4.039,2.214,6.058c0.741,2.029,1.482,4.059,2.225,6.088  c0.745,2.039,1.49,4.077,2.236,6.116c0.748,2.047,1.496,4.093,2.244,6.139c0.75,2.053,1.5,4.104,2.25,6.157  c0.752,2.056,1.504,4.112,2.256,6.169c0.752,2.059,1.505,4.117,2.258,6.175c0.752,2.06,1.506,4.118,2.259,6.177  c0.752,2.058,1.505,4.114,2.258,6.173c0.75,2.053,1.501,4.106,2.253,6.16c0.749,2.049,1.498,4.097,2.247,6.145  c0.746,2.041,1.492,4.08,2.238,6.12c0.743,2.029,1.486,4.06,2.229,6.09c0.737,2.018,1.477,4.036,2.214,6.053  c0.732,2.002,1.466,4.006,2.198,6.009c0.728,1.986,1.454,3.974,2.182,5.959c0.72,1.969,1.439,3.935,2.16,5.902  c0.712,1.946,1.424,3.892,2.136,5.837c0.703,1.922,1.406,3.843,2.11,5.764c0.692,1.896,1.386,3.79,2.079,5.686  c0.684,1.865,1.366,3.729,2.049,5.596c0.671,1.833,1.341,3.665,2.013,5.498c0.658,1.797,1.314,3.594,1.973,5.393  c0.644,1.757,1.287,3.517,1.932,5.273c0.628,1.716,1.256,3.432,1.884,5.148c0.61,1.67,1.223,3.341,1.834,5.012  c0.594,1.622,1.188,3.244,1.781,4.865c0.574,1.568,1.148,3.139,1.724,4.708c0.554,1.515,1.109,3.028,1.664,4.543  c0.533,1.457,1.066,2.914,1.6,4.37c0.511,1.396,1.021,2.792,1.533,4.188c0.489,1.333,0.977,2.667,1.465,4  c0.465,1.271,0.932,2.541,1.396,3.812c0.44,1.206,0.883,2.411,1.325,3.616c0.417,1.143,0.836,2.282,1.253,3.425  c0.395,1.077,0.79,2.155,1.185,3.233c0.373,1.018,0.744,2.033,1.117,3.049c0.351,0.958,0.701,1.915,1.052,2.873  c0.331,0.901,0.661,1.805,0.991,2.707c0.313,0.853,0.624,1.704,0.936,2.556c0.296,0.806,0.592,1.611,0.887,2.419  c0.28,0.768,0.563,1.534,0.844,2.303c0.27,0.736,0.539,1.472,0.809,2.208c0.261,0.711,0.521,1.423,0.782,2.134  c0.955,2.604,1.936,5.203,3.153,7.698c0.351,0.719,0.716,1.433,1.111,2.128c0.317,0.559,0.646,1.14,1.079,1.619  c1.065,1.177,3.488,2.618,6.354,2.738c5.922,0.25,12.757,0.068,12.757,0.068s4.952,0.526,8.324-6.891  c3.313-7.286,78.499-229.744,78.499-229.744s3.486-11.805,7.588,0.269c0.105,0.313,0.223,0.621,0.334,0.932  c0.113,0.316,0.227,0.635,0.34,0.953c0.121,0.333,0.24,0.667,0.359,1c0.127,0.354,0.254,0.711,0.383,1.066  c0.137,0.385,0.275,0.771,0.416,1.155c0.15,0.42,0.303,0.84,0.455,1.26c0.166,0.46,0.332,0.921,0.5,1.381  c0.182,0.505,0.367,1.01,0.549,1.516c0.201,0.553,0.402,1.105,0.604,1.658c0.221,0.604,0.441,1.207,0.66,1.811  c0.24,0.656,0.48,1.311,0.719,1.966c0.26,0.708,0.518,1.416,0.777,2.123c0.277,0.76,0.557,1.521,0.834,2.279  c0.297,0.81,0.596,1.621,0.893,2.431c0.314,0.859,0.631,1.719,0.947,2.578c0.332,0.906,0.666,1.812,1,2.718  c0.35,0.949,0.699,1.899,1.049,2.85c0.363,0.989,0.729,1.979,1.094,2.971c0.377,1.028,0.756,2.056,1.137,3.083  c0.393,1.063,0.783,2.125,1.174,3.187c0.404,1.094,0.809,2.188,1.211,3.28c0.414,1.122,0.828,2.243,1.242,3.365  c0.422,1.146,0.846,2.294,1.271,3.44c0.432,1.171,0.863,2.341,1.295,3.511c0.439,1.19,0.881,2.381,1.32,3.571  c0.447,1.21,0.895,2.419,1.342,3.63c0.453,1.228,0.906,2.455,1.359,3.682c0.461,1.244,0.92,2.487,1.381,3.729  c0.465,1.26,0.932,2.519,1.396,3.776c0.471,1.273,0.941,2.546,1.412,3.819c0.477,1.286,0.953,2.571,1.428,3.858  c0.48,1.299,0.961,2.6,1.443,3.897c0.484,1.311,0.969,2.622,1.455,3.933c0.488,1.322,0.979,2.645,1.467,3.966  c0.494,1.332,0.986,2.664,1.479,3.996c0.498,1.341,0.994,2.683,1.49,4.023c0.5,1.348,1,2.697,1.5,4.045  c0.5,1.354,1.002,2.709,1.504,4.063c0.504,1.359,1.01,2.719,1.512,4.077c0.506,1.362,1.01,2.725,1.514,4.085  c0.506,1.362,1.012,2.726,1.518,4.087c0.504,1.361,1.01,2.723,1.516,4.083c0.504,1.358,1.008,2.718,1.512,4.075  c0.502,1.354,1.006,2.706,1.508,4.061c0.5,1.347,1,2.692,1.5,4.04c0.498,1.338,0.996,2.677,1.492,4.015  c0.494,1.328,0.988,2.657,1.482,3.985c0.49,1.316,0.979,2.634,1.471,3.95c0.486,1.306,0.971,2.609,1.457,3.914  c0.479,1.291,0.961,2.582,1.441,3.874c0.477,1.277,0.951,2.555,1.426,3.831c0.471,1.263,0.939,2.523,1.41,3.785  c0.465,1.246,0.928,2.492,1.393,3.737c0.457,1.229,0.916,2.458,1.373,3.687c0.451,1.211,0.902,2.422,1.354,3.634  c0.443,1.191,0.889,2.384,1.332,3.575c0.438,1.172,0.875,2.345,1.311,3.517c0.43,1.149,0.857,2.301,1.287,3.451  c0.42,1.127,0.84,2.253,1.26,3.381c0.41,1.101,0.82,2.201,1.23,3.303c0.4,1.072,0.801,2.146,1.199,3.218  c0.389,1.042,0.777,2.084,1.166,3.126c0.377,1.008,0.752,2.016,1.129,3.024c0.363,0.971,0.725,1.941,1.086,2.914  c0.35,0.931,0.697,1.861,1.045,2.793c0.332,0.888,0.664,1.775,0.996,2.664c0.316,0.842,0.631,1.684,0.947,2.524  c0.297,0.793,0.594,1.586,0.893,2.378c0.279,0.742,0.559,1.484,0.838,2.227c0.26,0.688,0.52,1.378,0.779,2.066  c0.24,0.637,0.48,1.271,0.723,1.906c0.221,0.582,0.441,1.164,0.664,1.745c0.199,0.528,0.402,1.057,0.605,1.585  c0.184,0.479,0.365,0.954,0.549,1.431c0.166,0.429,0.332,0.856,0.498,1.284c0.148,0.383,0.299,0.766,0.449,1.148  c0.602,1.535,1.164,3.074,1.961,4.427c0.844,1.433,1.951,2.657,3.643,3.445c1.602,0.747,3.299,1.287,5.053,1.512  c1.467,0.188,2.979,0.264,4.457,0.25c9.889-0.093,11.422,0.363,15.639-9.985c4.215-10.349,93.752-272.596,93.752-272.596  s12.418-36.337,15.178-60.253c2.225-19.272,4.053-38.866,1.67-58.216c-2.203-17.904-9.576-38.205-22.73-51.112  c-6.652-6.528-15.795-10.038-24.848-11.601c-4.48-0.773-9.324-1.202-13.873-0.913c-4.299,0.273-9.059,1.298-12.961,3.183  c-8.477,4.093-15.523,11.792-20.088,19.917c-7.721,13.745-9.979,30.953-5.543,46.141c4.484,15.345,15.898,27.264,24.398,40.415  c5.791,8.957,10.67,18.7,13.84,28.898c3.371,10.841,5.346,22.058,6.217,33.368c0.795,10.305,1.199,21.547-2.031,31.509  l-40.609,143.202c0,0-1.666,5.901-3.324,5.852c-1.662-0.049-4.682-6.373-7.283-13.088c-10.406-26.866-86.471-260.79-86.471-260.79  s-4.023-8.164,9.314-8.279c13.338-0.115,27.941-0.154,27.789-11.499c-0.043-3.177-1.232-7.204-4.123-8.873  c-6.205-3.583-13.973-1.785-20.705-1.528c-8.539,0.325-17.066,0.914-25.605,1.235c-2.768,0.104-5.539,0.196-8.309,0.284  c-8.951,0.284-17.906,0.454-26.86,0.573c-9.216,0.123-18.443,0.195-27.66,0.091c-8.077-0.091-16.139-0.228-24.212-0.474  c-3.213-0.098-6.437-0.085-9.638-0.407c-2.552-0.256-5.016-0.554-7.589-0.388c-6.13,0.394-8.756,5.925-8.121,11.633  c1.227,11.039,13.032,9.813,23.457,9.966c10.426,0.153,13.799-1.993,17.019,7.359c3.221,9.352,37.409,101.495,37.409,101.495  s1.379,7.052,0.383,10.961c-0.996,3.91-52.51,154.467-52.51,154.467s-5.136,22.69-11.806-2.837  c-6.669-25.526-89.383-266.387-89.383-266.387s-2.761-5.06,7.666-5.212c10.425-0.153,18.243-1.533,18.244-1.533  c2.447-0.432,5.044-1.648,7.192-2.85c3.742-2.093,5.825-6.634,5.356-10.821c-1.201-10.69-18.666-7.662-25.58-6.721  c-6.562,0.893-13.216,1.167-19.822,1.48c-9.516,0.449-19.039,0.693-28.563,0.912c-10.295,0.237-20.598,0.404-30.896,0.471  c-9.008,0.059-18.016,0.153-27.023,0.156c-9.93,0.004-26.284-3.756-27.769,10.511c-0.548,5.263,0.659,10.904,4.836,14.505  C235.454,358.505,238.94,359.646,241.923,359.646z" fill="#FFFFFF" id="Wordpress"/></svg>